<svg width="187" height="46" viewBox="0 0 187 46" fill="none" xmlns="http://www.w3.org/2000/svg">
<path d="M125.724 7.41025C126.255 7.41025 126.687 6.97911 126.687 6.44728C126.687 5.91544 126.255 5.48431 125.724 5.48431C125.192 5.48431 124.761 5.91544 124.761 6.44728C124.761 6.97911 125.192 7.41025 125.724 7.41025Z" fill="#8CC23F"/>
<path d="M126.76 9.22376L127.107 7.47379L128.011 8.06526C128.043 8.08597 128.079 8.10014 128.117 8.10698C128.154 8.11383 128.193 8.1132 128.23 8.10515C128.268 8.09709 128.303 8.08176 128.334 8.06003C128.366 8.0383 128.393 8.01059 128.413 7.9785C128.434 7.9464 128.448 7.91054 128.455 7.87296C128.462 7.83539 128.461 7.79683 128.453 7.7595C128.445 7.72217 128.43 7.68678 128.408 7.65538C128.386 7.62397 128.359 7.59715 128.327 7.57645L127.229 6.85788L127.195 6.84077C127.096 6.78649 126.994 6.73754 126.889 6.69413C126.832 6.95756 126.687 7.19348 126.477 7.36267C126.267 7.53186 126.005 7.62412 125.736 7.62412C125.466 7.62412 125.205 7.53186 124.995 7.36267C124.785 7.19348 124.639 6.95756 124.582 6.69413C124.462 6.74545 124.338 6.80166 124.221 6.86765C124.209 6.87152 124.199 6.87643 124.189 6.88232L123.113 7.71575C123.082 7.73809 123.055 7.76653 123.035 7.79936C123.015 7.83219 123.002 7.86873 122.996 7.9068C122.991 7.94487 122.993 7.98369 123.003 8.02092C123.012 8.05816 123.03 8.09304 123.053 8.12349C123.077 8.15394 123.106 8.17932 123.14 8.19812C123.173 8.21692 123.21 8.22874 123.249 8.23289C123.287 8.23704 123.325 8.23342 123.362 8.22226C123.399 8.21109 123.433 8.19261 123.463 8.16791L124.345 7.48846L124.69 9.21643C124.993 8.99735 125.357 8.87942 125.731 8.87942C126.105 8.87942 126.469 8.99735 126.772 9.21643L126.76 9.22376Z" fill="#8CC23F"/>
<path d="M125.724 16.0794C126.255 16.0794 126.687 15.6483 126.687 15.1165C126.687 14.5846 126.255 14.1535 125.724 14.1535C125.192 14.1535 124.761 14.5846 124.761 15.1165C124.761 15.6483 125.192 16.0794 125.724 16.0794Z" fill="#8CC23F"/>
<path d="M124.719 12.1176L124.333 14.0728L123.451 13.3909C123.39 13.3446 123.314 13.3241 123.239 13.3339C123.163 13.3438 123.095 13.3832 123.049 13.4435C123.002 13.5038 122.982 13.58 122.992 13.6554C123.001 13.7308 123.041 13.7992 123.101 13.8455L124.177 14.6765C124.177 14.6765 124.199 14.6765 124.208 14.6936C124.325 14.7592 124.446 14.8179 124.57 14.8696C124.627 14.6062 124.773 14.3703 124.983 14.2011C125.193 14.0319 125.454 13.9396 125.724 13.9396C125.993 13.9396 126.255 14.0319 126.465 14.2011C126.674 14.3703 126.82 14.6062 126.877 14.8696C126.982 14.8262 127.084 14.7772 127.183 14.723V14.723L127.217 14.7034L128.314 13.9849C128.378 13.9425 128.422 13.8769 128.437 13.8023C128.452 13.7276 128.437 13.6501 128.395 13.5865C128.375 13.5549 128.348 13.5278 128.317 13.5066C128.286 13.4855 128.251 13.4707 128.214 13.4632C128.177 13.4557 128.139 13.4556 128.102 13.4629C128.065 13.4702 128.03 13.4848 127.999 13.5058L127.107 14.0728L126.718 12.1176C126.424 12.3182 126.075 12.4254 125.719 12.4254C125.362 12.4254 125.014 12.3182 124.719 12.1176V12.1176Z" fill="#8CC23F"/>
<path d="M130.311 9.91788C130.121 9.91029 129.932 9.95932 129.77 10.0588C129.608 10.1582 129.478 10.3037 129.398 10.4766C129.319 10.6496 129.292 10.8424 129.322 11.0305C129.351 11.2187 129.436 11.3938 129.566 11.5337C129.695 11.6736 129.863 11.772 130.048 11.8165C130.233 11.8609 130.428 11.8495 130.606 11.7835C130.785 11.7175 130.94 11.6 131.052 11.4459C131.164 11.2918 131.228 11.1079 131.235 10.9175C131.24 10.7912 131.22 10.665 131.177 10.5463C131.133 10.4276 131.067 10.3187 130.981 10.2258C130.895 10.1329 130.792 10.0579 130.677 10.0051C130.562 9.95223 130.438 9.9226 130.311 9.91788Z" fill="#8CC23F"/>
<path d="M129.092 10.8246C129.103 10.555 129.206 10.2973 129.384 10.0942C129.562 9.8911 129.803 9.75475 130.069 9.70769C130.022 9.58263 129.968 9.46024 129.908 9.34108V9.34108C129.904 9.32925 129.899 9.3178 129.893 9.30686L129.096 8.20702C129.075 8.17637 129.047 8.15032 129.015 8.13035C128.983 8.11038 128.948 8.0969 128.911 8.09066C128.873 8.08441 128.836 8.08554 128.799 8.09397C128.762 8.10241 128.728 8.11798 128.697 8.13981C128.666 8.16163 128.64 8.18928 128.62 8.22118C128.6 8.25307 128.587 8.28858 128.58 8.32569C128.574 8.3628 128.575 8.40077 128.584 8.43744C128.592 8.47411 128.608 8.50876 128.63 8.53941L129.275 9.44618L127.251 9.7688C127.427 10.0693 127.511 10.4152 127.491 10.763C127.472 11.1109 127.35 11.4452 127.141 11.7241L129.184 12.2129L128.556 13.0928C128.535 13.1234 128.519 13.1581 128.51 13.1947C128.502 13.2314 128.501 13.2694 128.507 13.3065C128.513 13.3436 128.527 13.3791 128.547 13.411C128.567 13.4429 128.593 13.4705 128.624 13.4924C128.654 13.5142 128.689 13.5298 128.726 13.5382C128.762 13.5466 128.8 13.5478 128.837 13.5415C128.874 13.5353 128.91 13.5218 128.942 13.5018C128.974 13.4819 129.001 13.4558 129.023 13.4252L129.783 12.3595C129.783 12.3595 129.795 12.3375 129.803 12.3253C129.861 12.2282 129.915 12.1278 129.962 12.0247C129.702 11.9537 129.474 11.7961 129.315 11.5778C129.157 11.3596 129.078 11.0939 129.092 10.8246Z" fill="#8CC23F"/>
<path d="M122.136 10.7929C122.133 10.6014 122.074 10.4151 121.965 10.2575C121.857 10.0998 121.703 9.97808 121.525 9.90766C121.347 9.83725 121.152 9.82135 120.965 9.86199C120.778 9.90263 120.608 9.99798 120.475 10.1359C120.342 10.2738 120.253 10.4481 120.22 10.6366C120.186 10.8251 120.21 11.0193 120.287 11.1945C120.364 11.3697 120.492 11.518 120.653 11.6206C120.815 11.7232 121.003 11.7753 121.195 11.7705C121.449 11.7647 121.69 11.6587 121.867 11.4756C122.043 11.2924 122.14 11.047 122.136 10.7929Z" fill="#8CC23F"/>
<path d="M124.201 9.75413L122.189 9.40219L122.849 8.5052C122.894 8.44395 122.913 8.3673 122.902 8.29213C122.89 8.21696 122.85 8.14942 122.788 8.10437C122.727 8.05932 122.65 8.04045 122.575 8.05191C122.5 8.06337 122.432 8.10421 122.387 8.16547L121.583 9.26042C121.577 9.27052 121.573 9.28116 121.569 9.2922C121.506 9.41025 121.451 9.53185 121.402 9.65637C121.668 9.70652 121.908 9.84601 122.082 10.0516C122.257 10.2572 122.356 10.5165 122.363 10.7863C122.37 11.0561 122.284 11.3201 122.12 11.5343C121.956 11.7485 121.723 11.9 121.461 11.9636C121.508 12.0638 121.556 12.1664 121.615 12.2667C121.615 12.2667 121.615 12.2911 121.635 12.3009L122.368 13.3787C122.411 13.4415 122.478 13.4845 122.553 13.4983C122.628 13.512 122.706 13.4954 122.769 13.452C122.8 13.4305 122.826 13.4032 122.846 13.3715C122.866 13.3399 122.88 13.3045 122.887 13.2675C122.893 13.2305 122.893 13.1926 122.884 13.1559C122.876 13.1192 122.861 13.0845 122.84 13.0536L122.226 12.164L124.284 11.7021C124.077 11.4218 123.958 11.0867 123.941 10.7388C123.924 10.391 124.01 10.0458 124.189 9.7468L124.201 9.75413Z" fill="#8CC23F"/>
<path d="M119.97 44.1791H116.133L103.05 29.8543H92.7211V44.1791H89.8028V6.33973H106.452C114.669 6.33973 118.831 12.2324 118.885 18.1251C118.939 24.2867 114.884 29.693 106.613 29.693L119.97 44.1791ZM92.7211 27.0974H106.127C112.726 27.0974 115.642 23.3677 115.696 18.0714C115.749 13.6378 112.721 9.0429 106.452 9.0429H92.7211V27.0974Z" fill="#4C4C4C"/>
<path d="M126.992 17.3675H124.343V44.1791H126.992V17.3675Z" fill="#4C4C4C"/>
<path d="M152.885 22.3412C150.182 19.9631 147.532 19.5305 144.56 19.5305C140.405 19.4767 136.397 21.0434 136.495 24.448C136.605 28.0164 141.253 28.7203 144.604 29.3142C149.36 30.1256 155.903 30.9371 155.632 37.1524C155.471 43.0451 149.36 44.6118 144.658 44.6118C139.956 44.6118 135.307 42.8276 132.983 39.2616L134.938 37.5312C137.155 40.7085 141.153 42.0723 144.714 42.0723C147.958 42.0723 152.877 41.2071 153.039 36.9911C153.149 33.1514 148.715 32.3962 144.335 31.6923C139.147 30.8271 134.012 29.8543 133.958 24.5042C133.904 19.2592 139.147 16.9886 144.553 17.0424C148.444 17.0424 151.851 18.1251 154.498 20.6108L152.885 22.3412Z" fill="#4C4C4C"/>
<path d="M160.019 30.8271C160.019 22.8276 166.073 17.0424 173.589 17.0424C181.104 17.0424 187.804 21.6373 186.787 32.0711H162.722C163.262 38.3427 168.075 41.9623 173.589 41.9623C177.101 41.9623 181.209 40.557 183.209 37.9101L185.1 39.4229C182.507 42.8276 177.859 44.5555 173.589 44.5555C166.073 44.558 160.019 39.3154 160.019 30.8271ZM184.399 29.7468C184.345 23.1477 180.019 19.4816 173.589 19.4816C168.075 19.4816 163.324 23.2113 162.722 29.7468H184.399Z" fill="#4C4C4C"/>
<path d="M16.2723 31.0275C15.8363 29.5965 15.6123 28.1094 15.6076 26.6135C15.5538 20.3297 19.4741 13.562 28.549 13.562C31.8265 13.562 35.1481 14.6887 37.6264 17.106L42.3508 12.5404C38.4842 8.72761 33.6523 6.79433 28.549 6.79433C14.9623 6.79433 8.57102 16.7833 8.62479 26.6135C8.63072 28.1121 8.78133 29.6067 9.0745 31.0764C9.87616 31.0878 10.7186 31.0943 11.6017 31.0959C13.0486 31.0959 14.6299 31.0764 16.2723 31.0275Z" fill="#4C4C4C"/>
<path d="M28.5392 46C33.9651 46 38.9584 44.228 42.8249 40.4153L37.993 35.5271C35.522 37.9981 31.8167 39.3399 28.5392 39.3399C23.9419 39.3399 20.7377 37.7463 18.6675 35.3829C15.9106 35.2704 13.0779 35.07 10.1694 34.7816C12.7382 41.1191 18.5942 46 28.5392 46Z" fill="#8CC23F"/>
<path d="M53.2979 7.60088H46.2614V26.4986C48.6598 25.7475 51.0097 24.8497 53.2979 23.8101V7.60088Z" fill="#4C4C4C"/>
<path d="M72.2029 19.3961V29.1358C72.2029 35.5808 68.8716 39.4914 63.0229 39.4914C57.685 39.4914 54.0018 36.4998 53.3932 30.8417C51.1599 31.6443 48.8872 32.3328 46.584 32.9046C48.1091 41.6764 55.0161 45.9364 62.9594 45.9364C72.4107 45.9364 79.2322 40.2442 79.2322 29.126V9.96188C78.125 12.1713 75.9766 15.6713 72.2029 19.3961Z" fill="#8CC23F"/>
<path d="M71.7141 5.88269H68.1017L75.4487 0.0999756L82.4339 5.88269H71.7141Z" fill="#8CC23F"/>
<path d="M72.066 7.1585C67.6789 19.1345 55.7713 25.5649 42.8885 28.9451C41.9891 29.1798 41.0856 29.3997 40.178 29.605C20.8208 34.0288 0.309998 32.0809 0.309998 32.0809C17.4577 34.8109 30.9687 34.525 41.5907 32.5697C42.0257 32.4891 42.4632 32.4108 42.8885 32.3253C72.7211 26.3373 78.9095 7.1585 78.9095 7.1585H72.066Z" fill="#8CC23F"/>
</svg>
